<svg height="512" viewBox="0 0 38 58" width="512" xmlns="http://www.w3.org/2000/svg"><g id="Page-1" fill="none" fill-rule="evenodd"><g id="028---Train" fill="rgb(0,0,0)" fill-rule="nonzero"><path id="Shape" d="m3.707 4.707 2.707-2.707h10.586v6h4v-6h10.586l2.707 2.707c.3923789.37897221 1.0160848.37355237 1.4018186-.01218142.3857338-.3857338.3911536-1.00943969.0121814-1.40181858l-3-3c-.1874927-.18754937-.4418052-.29294336-.707-.293h-26c-.26519481.00005664-.51950727.10545063-.707.293l-3 3c-.37897221.39237889-.37355237 1.01608478.01218142 1.40181858.3857338.38573379 1.00943969.39115363 1.40181858.01218142z"/><path id="Shape" d="m14 41h10c.5522847 0 1-.4477153 1-1v-1h-12v1c0 .5522847.4477153 1 1 1z"/><path id="Shape" d="m5.562 43.563c.43084932-.4289468.56016688-1.0755392.32743782-1.6372007-.23272905-.5616616-.7814705-.9272947-1.38943782-.9257993h-3.279l-.087 3.0000002 3.366-.0000002c.39780235.0002107.77955243-.1568748 1.062-.437z"/><path id="Shape" d="m32.438 41.437c-.4308493.4289468-.5601669 1.0755392-.3274378 1.6372007.232729.5616616.7814705.9272947 1.3894378.9257993l3.366.0000046-.087-3.0000046h-3.279c-.3978024-.0002107-.7795524.1568748-1.062.437z"/><path id="Shape" d="m29 10h-20c-.55228475 0-1 .4477153-1 1v2h22v-2c0-.5522847-.4477153-1-1-1z"/><path id="Shape" d="m26.307 37c1.5611863-.0073968 2.8584932-1.2053447 2.99-2.761l1.535-19.239h-23.664l1.532 19.239c.13160995 1.5567971 1.4306606 2.7551529 2.993 2.761zm-14.066-12.651 6-7c.36484-.3948857.9766102-.4306334 1.384959-.0809275.4083488.3497058.4671163.9596952.133041 1.3809275l-6 7c-.36484.3948857-.9766102.4306334-1.384959.0809275-.4083488-.3497058-.4671163-.9596952-.133041-1.3809275zm13.518-4.7-11.143 13c-.2264106.2906246-.5942784.4332232-.9574156.3711283-.3631372-.062095-.6627215-.3188251-.7797004-.6681678s-.0324037-.7347102.220116-1.0029605l11.142-13c.36484-.3948857.9766102-.4306334 1.384959-.0809275.4083488.3497058.4671163.9596952.133041 1.3809275z"/><path id="Shape" d="m3 57c0 .5522847.44771525 1 1 1h1c.55228475 0 1-.4477153 1-1v-2h-3z"/><path id="Shape" d="m36.923 46h-3.423c-1.9329966 0-3.5-1.5670034-3.5-3.5s1.5670034-3.5 3.5-3.5h3.221l-.609-21.087c-.0392141-1.6262323-1.373318-2.9216471-3-2.913h-.275l-1.546 19.4c-.2022086 2.3249857-1.980592 4.2036648-4.291 4.533v1.067c0 1.6568542-1.3431458 3-3 3h-10c-1.6568542 0-3-1.3431458-3-3v-1.067c-2.31040802-.3293352-4.08879144-2.2080143-4.291-4.533l-1.548-19.4h-.275c-1.62668204-.0086471-2.96078588 1.2867677-3 2.913l-.607 21.087h3.221c1.93299662 0 3.5 1.5670034 3.5 3.5s-1.56700338 3.5-3.5 3.5h-3.423l-.177 5.971c-.00783926.2702047.09404661.532073.28243937.7259292.18839276.1938561.44724225.3031845.71756063.3030708h5.1v-2c.00330612-2.7600532 2.23994685-4.9966939 5-5h14c2.7600532.0033061 4.9966939 2.2399468 5 5v2h5.1c.2701399.0001059.5288309-.1090858.7171934-.3027224.1883624-.1936366.2903705-.4552436.2828066-.7252776z"/><path id="Shape" d="m32 57c0 .5522847.4477153 1 1 1h1c.5522847 0 1-.4477153 1-1v-2h-3z"/><path id="Shape" d="m26 48h-14c-1.6568542 0-3 1.3431458-3 3h20c0-1.6568542-1.3431458-3-3-3z"/></g></g></svg>