<svg height="512" viewBox="0 0 56 56" width="512" xmlns="http://www.w3.org/2000/svg"><g id="Page-1" fill="none" fill-rule="evenodd"><g id="034---Train-Tunnel" fill="rgb(0,0,0)" fill-rule="nonzero" transform="translate(-1)"><path id="Rectangle-path" d="m30 16h11v8h-11z"/><path id="Shape" d="m21.781 6-.5 2h15.438l-.5-2z"/><path id="Shape" d="m19 10c-1.1045695 0-2 .8954305-2 2v2h24v-2c0-1.1045695-.8954305-2-2-2z"/><path id="Shape" d="m22 33v-1c0-.5522847-.4477153-1-1-1h-4v3h4c.5522847 0 1-.4477153 1-1z"/><path id="Shape" d="m17 37c0 1.1045695.8954305 2 2 2h20c1.1045695 0 2-.8954305 2-2v-1h-4c-1.6568542 0-3-1.3431458-3-3v-1c0-1.6568542 1.3431458-3 3-3h4v-3h-24v3h4c1.6568542 0 3 1.3431458 3 3v1c0 1.6568542-1.3431458 3-3 3h-4z"/><path id="Shape" d="m34.493 41 .824 2h-12.634l.824-2h-1.989l-9.475 13.423c-.2156242.3052163-.2430755.7051916-.0711723 1.0370049.1719033.3318133.5144735.5400907.8881723.5399951h4.47l.412-1h22.516l.412 1h4.47c.3736988.0000956.716269-.2081818.8881723-.5399951.1719032-.3318133.1444519-.7317886-.0711723-1.0370049l-9.475-13.423zm1.647 4 1.236 3h-16.752l1.236-3zm-17.575 8 1.235-3h18.4l1.236 3z"/><path id="Shape" d="m29 0c-12.0886553-.00854003-22.81612203 7.74663419-26.59807833 19.2284662-3.78195631 11.481832.23672946 24.0941845 9.96407833 31.2715338 7.449-10.556 6.734-9.5 6.634-9.5-2.209139 0-4-1.790861-4-4v-25c.001823-1.0988194.4542491-2.14880196 1.251653-2.90481415.7974038-.7560122 1.8699897-1.15188126 2.967347-1.09518585l.621-2.485c.2226204-.89062096 1.0229774-1.51532 1.941-1.515h14.438c.9180226-.00032 1.7183796.62437904 1.941 1.515l.621 2.485c1.0973573-.05669541 2.1699432.33917365 2.967347 1.09518585.7974039.75601219 1.24983 1.80599475 1.251653 2.90481415v25c.0001643 1.0731064-.4308584 2.1012758-1.1962124 2.8534664-.7653539.7521906-1.8008456 1.165313-2.8737876 1.1465336l6.7 9.5c9.7267539-7.1769126 13.7456054-19.7882308 9.9647004-31.269632-3.780905-11.48140122-14.5067821-19.23717813-26.5947004-19.230368zm-22.463 39.007c-.50479793.2227087-1.09459089-.0055117-1.318-.51-2.89826533-6.5517132-2.96050976-14.0098257-.172-20.609.13933357-.3290416.44362472-.558755.79824991-.6026094s.70570841.1048127.92100002.39c.2152916.2851872.26208366.6635678.12275007.9926094-2.57385764 6.0906601-2.51631672 12.9742187.159 19.021.22258484.5050704-.00612515 1.0949721-.511 1.318zm46.244-.51c-.2305233.4925249-.8123745.7105556-1.3098003.4908072-.4974257-.2197485-.7280693-.7967163-.5191997-1.2988072 2.6746021-6.0469355 2.7321405-12.9301977.159-19.021-.1393336-.3290416-.0925415-.7074222.1227501-.9926094s.5663748-.4338544.921-.39.6589163.2735678.7982499.6026094c2.7887777 6.6001604 2.7265338 14.0592982-.172 20.612z"/><path id="Rectangle-path" d="m17 16h11v8h-11z"/><path id="Shape" d="m36 32v1c0 .5522847.4477153 1 1 1h4v-3h-4c-.5522847 0-1 .4477153-1 1z"/></g></g></svg>