<svg height="512" viewBox="0 0 58 35" width="512" xmlns="http://www.w3.org/2000/svg"><g id="Page-1" fill="none" fill-rule="evenodd"><g id="050---Track" fill="rgb(0,0,0)" fill-rule="nonzero" transform="translate(-1)"><path id="Shape" d="m58 29h-4.84l-2.9-7.0000079 4.87.0000079c.3586848-.001424.690659.1893658.87.5l2.87 5c.1789919.3100165.1786145.6920638-.0009896 1.001726-.1796041.3096623-.5110351.4996985-.8690104.498274z"/><path id="Shape" d="m9.74 21.9999921-2.9 7.0000079h-4.84c-.3579753.0014245-.68940625-.1886117-.86901036-.498274-.1796041-.3096622-.17998154-.6917095-.00098964-1.001726l2.87-5c.17934097-.3106342.51131524-.501424.87-.5z"/><path id="Shape" d="m41.92 29h-23.85l1.94-7h19.97l.15.53z"/><path id="Shape" d="m51.12 17h-2.94l-2.07-5.0000079 3.29.0000079c.3586848-.001424.690659.1893658.87.5l1.72 3c.1789919.3100165.1786145.6920638-.0009896 1.001726-.1796041.3096623-.5110351.4996985-.8690104.498274z"/><path id="Shape" d="m13.89 11.9999921-2.08 5.0000079h-2.93c-.3579753.0014245-.68940625-.1886117-.86901036-.498274-.1796041-.3096622-.17998154-.6917095-.00098964-1.001726l1.72-3c.17934097-.3106342.5113152-.501424.87-.5z"/><path id="Shape" d="m38.6 17h-17.2l1.38-5h14.44z"/><path id="Shape" d="m50.5 35h-3.318c-.8994194.0001485-1.6883047-.6001082-1.928-1.467l-1.254-4.533-1.94-7-5.73-20.73c-.0843562-.30082201-.02327-.62378254.1651261-.87301488.1883962-.24923234.4824494-.39609184.7948739-.39698512h1c.4073435-.00204015.7752126.24320592.93.62l8.87 21.38 2.91 7 1.342 3.233c.2559424.6163518.1875868 1.3197551-.1822383 1.8752958s-.9923838.8900094-1.6597617.8917042z"/><path id="Shape" d="m23.67 1.27-5.73 20.73-1.94 7-1.254 4.533c-.2396953.8668918-1.0285806 1.4671485-1.928 1.467h-3.313c-.66826391-.0000273-1.29236059-.3338159-1.66337113-.8896287-.37101055-.5558127-.43990808-1.2602023-.18362887-1.8773713l1.342-3.233 2.91-7 8.87-21.38c.1547874-.37679408.5226565-.62204015.93-.62h1c.3124245.00089328.6064777.14775278.7948739.39698512.1883961.24923234.2494823.57219287.1651261.87301488z"/><path id="Shape" d="m45.97 8h-1.52l-1.67-4.00000792 2.04.00000792c.3586848-.00142401.690659.18936581.87.5l1.15 2c.1789919.31001652.1786145.69206376-.0009896 1.00172601-.1796041.30966224-.5110351.49969844-.8690104.49827399z"/><path id="Shape" d="m17.21 3.99999208-1.66 4.00000792h-1.52c-.3579753.00142445-.6894063-.18861175-.8690104-.49827399-.1796041-.30966225-.1799815-.69170949-.0009896-1.00172601l1.15-2c.179341-.31063419.5113152-.50142401.87-.5z"/><path id="Shape" d="m36.11 8h-12.22l1.1-4h10.02z"/></g></g></svg>